<svg width="424" height="424" viewBox="0 0 424 424" fill="none" xmlns="http://www.w3.org/2000/svg">
<path d="M121.143 424H302.857C369.758 424 424 369.758 424 302.857V121.143C424 54.2417 369.758 0 302.857 0H121.143C54.2417 0 0 54.2417 0 121.143V302.857C0 369.758 54.2417 424 121.143 424Z" fill="url(#paint0_linear)"/>
<path d="M121.143 424H302.857C369.758 424 424 369.758 424 302.857V121.143C424 54.2417 369.758 0 302.857 0H121.143C54.2417 0 0 54.2417 0 121.143V302.857C0 369.758 54.2417 424 121.143 424Z" fill="url(#paint1_radial)"/>
<path d="M212 110.962C185.203 110.962 159.504 121.607 140.555 140.555C121.607 159.504 110.962 185.203 110.962 212C110.962 238.797 121.607 264.497 140.555 283.445C159.504 302.393 185.203 313.039 212 313.039C238.797 313.039 264.497 302.393 283.445 283.445C302.393 264.497 313.039 238.797 313.039 212C313.039 185.203 302.393 159.504 283.445 140.555C264.497 121.607 238.797 110.962 212 110.962Z" stroke="#121212" stroke-width="30" stroke-miterlimit="10"/>
<path d="M333.336 70.3662C327.953 70.3662 322.79 72.5047 318.983 76.3113C315.177 80.1179 313.038 85.2808 313.038 90.6641C313.038 96.0474 315.177 101.21 318.983 105.017C322.79 108.823 327.953 110.962 333.336 110.962C338.719 110.962 343.882 108.823 347.689 105.017C351.495 101.21 353.634 96.0474 353.634 90.6641C353.634 85.2808 351.495 80.1179 347.689 76.3113C343.882 72.5047 338.719 70.3662 333.336 70.3662Z" fill="#121212"/>
<defs>
<linearGradient id="paint0_linear" x1="-0.0468825" y1="-0.045781" x2="449.046" y2="395.618" gradientUnits="userSpaceOnUse">
<stop offset="0.28125" stop-color="#FFB74D"/>
<stop offset="0.494792" stop-color="#E57373"/>
<stop offset="0.71875" stop-color="#42A5F5"/>
<stop offset="0.869792" stop-color="#BDBDBD"/>
</linearGradient>
<radialGradient id="paint1_radial" cx="0" cy="0" r="1" gradientUnits="userSpaceOnUse" gradientTransform="translate(-0.0469108 -0.0458362) rotate(45.003) scale(599.725 640.249)">
<stop offset="0.165032" stop-color="white"/>
<stop offset="0.353459" stop-color="#F5F5F5" stop-opacity="0"/>
</radialGradient>
</defs>
</svg>
