<svg width="600" height="600" viewBox="0 0 600 600" fill="none" xmlns="http://www.w3.org/2000/svg">
<mask id="path-1-inside-1_201_3" fill="white">
<path fill-rule="evenodd" clip-rule="evenodd" d="M454 300C454 385.052 385.052 454 300 454C214.948 454 146 385.052 146 300C146 214.948 214.948 146 300 146C385.052 146 454 214.948 454 300ZM469 300C469 393.336 393.336 469 300 469C206.664 469 131 393.336 131 300C131 206.664 206.664 131 300 131C393.336 131 469 206.664 469 300ZM307.5 206C307.5 201.858 304.142 198.5 300 198.5C295.858 198.5 292.5 201.858 292.5 206V292.5H206C201.858 292.5 198.5 295.858 198.5 300C198.5 304.142 201.858 307.5 206 307.5H292.5V394C292.5 398.142 295.858 401.5 300 401.5C304.142 401.5 307.5 398.142 307.5 394V307.5H394C398.142 307.5 401.5 304.142 401.5 300C401.5 295.858 398.142 292.5 394 292.5H307.5V206Z"/>
</mask>
<path d="M292.5 292.5V307.5C300.784 307.5 307.5 300.784 307.5 292.5H292.5ZM292.5 307.5H307.5C307.5 299.216 300.784 292.5 292.5 292.5V307.5ZM307.5 307.5V292.5C299.216 292.5 292.5 299.216 292.5 307.5H307.5ZM307.5 292.5H292.5C292.5 300.784 299.216 307.5 307.5 307.5V292.5ZM300 469C393.336 469 469 393.336 469 300H439C439 376.768 376.768 439 300 439V469ZM131 300C131 393.336 206.664 469 300 469V439C223.232 439 161 376.768 161 300H131ZM300 131C206.664 131 131 206.664 131 300H161C161 223.232 223.232 161 300 161V131ZM469 300C469 206.664 393.336 131 300 131V161C376.768 161 439 223.232 439 300H469ZM300 484C401.62 484 484 401.62 484 300H454C454 385.052 385.052 454 300 454V484ZM116 300C116 401.62 198.38 484 300 484V454C214.948 454 146 385.052 146 300H116ZM300 116C198.38 116 116 198.38 116 300H146C146 214.948 214.948 146 300 146V116ZM484 300C484 198.38 401.62 116 300 116V146C385.052 146 454 214.948 454 300H484ZM300 213.5C295.858 213.5 292.5 210.142 292.5 206H322.5C322.5 193.574 312.426 183.5 300 183.5V213.5ZM307.5 206C307.5 210.142 304.142 213.5 300 213.5V183.5C287.574 183.5 277.5 193.574 277.5 206H307.5ZM307.5 292.5V206H277.5V292.5H307.5ZM206 307.5H292.5V277.5H206V307.5ZM213.5 300C213.5 304.142 210.142 307.5 206 307.5V277.5C193.574 277.5 183.5 287.574 183.5 300H213.5ZM206 292.5C210.142 292.5 213.5 295.858 213.5 300H183.5C183.5 312.426 193.574 322.5 206 322.5V292.5ZM292.5 292.5H206V322.5H292.5V292.5ZM307.5 394V307.5H277.5V394H307.5ZM300 386.5C304.142 386.5 307.5 389.858 307.5 394H277.5C277.5 406.426 287.574 416.5 300 416.5V386.5ZM292.5 394C292.5 389.858 295.858 386.5 300 386.5V416.5C312.426 416.5 322.5 406.426 322.5 394H292.5ZM292.5 307.5V394H322.5V307.5H292.5ZM394 292.5H307.5V322.5H394V292.5ZM386.5 300C386.5 295.858 389.858 292.5 394 292.5V322.5C406.426 322.5 416.5 312.426 416.5 300H386.5ZM394 307.5C389.858 307.5 386.5 304.142 386.5 300H416.5C416.5 287.574 406.426 277.5 394 277.5V307.5ZM307.5 307.5H394V277.5H307.5V307.5ZM292.5 206V292.5H322.5V206H292.5Z" fill="black" fill-opacity="0.66" mask="url(#path-1-inside-1_201_3)"/>
</svg>
