<svg width="425" height="385" viewBox="0 0 425 385" fill="none" xmlns="http://www.w3.org/2000/svg">
<path d="M17.0005 166.017C23.9154 163.051 385.741 7.86543 398.608 2.69477C412.327 -2.79896 429.668 -0.633841 423.84 25.9242L358.162 368.244C358.045 368.85 357.88 369.433 357.614 369.991C355.677 374.05 345.993 391.161 323.897 382.071C323.142 381.761 322.422 381.326 321.779 380.824L227.159 307.025L191.627 280.128C187.051 276.664 186.323 270.068 190.033 265.69L309.037 125.252C316.52 116.42 305.52 104.053 295.876 110.456L115.453 230.239C112.863 231.958 109.622 232.376 106.682 231.369L16.5206 200.495C16.4701 200.478 16.4275 200.463 16.3776 200.444C15.3079 200.042 1.81956 194.762 0.459413 183.745C-0.844478 173.183 14.1842 167.08 16.5806 166.177C16.8001 166.094 16.7849 166.109 17.0005 166.017Z" fill="url(#paint0_linear)"/>
<path d="M17.0005 166.017C23.9154 163.051 385.741 7.86543 398.608 2.69477C412.327 -2.79896 429.668 -0.633841 423.84 25.9242L358.162 368.244C358.045 368.85 357.88 369.433 357.614 369.991C355.677 374.05 345.993 391.161 323.897 382.071C323.142 381.761 322.422 381.326 321.779 380.824L227.159 307.025L191.627 280.128C187.051 276.664 186.323 270.068 190.033 265.69L309.037 125.252C316.52 116.42 305.52 104.053 295.876 110.456L115.453 230.239C112.863 231.958 109.622 232.376 106.682 231.369L16.5206 200.495C16.4701 200.478 16.4275 200.463 16.3776 200.444C15.3079 200.042 1.81956 194.762 0.459413 183.745C-0.844478 173.183 14.1842 167.08 16.5806 166.177C16.8001 166.094 16.7849 166.109 17.0005 166.017Z" fill="url(#paint1_radial)"/>
<defs>
<linearGradient id="paint0_linear" x1="0.332443" y1="0.206536" x2="410.651" y2="399.483" gradientUnits="userSpaceOnUse">
<stop offset="0.28125" stop-color="#FFB74D"/>
<stop offset="0.494792" stop-color="#E57373"/>
<stop offset="0.71875" stop-color="#42A5F5"/>
<stop offset="0.869792" stop-color="#BDBDBD"/>
</linearGradient>
<radialGradient id="paint1_radial" cx="0" cy="0" r="1" gradientUnits="userSpaceOnUse" gradientTransform="translate(0.332415 0.206486) rotate(42.1604) scale(572.894 608.603)">
<stop offset="0.165032" stop-color="white"/>
<stop offset="0.353459" stop-color="#F5F5F5" stop-opacity="0"/>
</radialGradient>
</defs>
</svg>
