<svg width="424" height="424" viewBox="0 0 424 424" fill="none" xmlns="http://www.w3.org/2000/svg">
<path d="M424 50.1944C408.382 58.7159 391.634 64.444 374.02 67.0635C391.996 53.803 405.794 32.8144 412.287 7.84762C395.477 20.0973 376.838 29.0101 357.033 33.8035C341.177 12.9779 318.572 0 293.555 0C245.501 0 206.554 47.9227 206.554 107.03C206.554 115.41 207.331 123.573 208.824 131.421C136.531 126.942 72.426 84.3348 29.5128 19.5756C22.022 35.423 17.7465 53.803 17.7465 73.4112C17.7465 110.541 33.0727 143.29 56.4373 162.507C42.1624 161.952 28.7708 157.126 17.0399 149.105C17.0399 149.561 17.0399 149.996 17.0399 150.464C17.0399 202.343 47.0208 245.548 86.7893 255.428C79.5105 257.896 71.8253 259.189 63.8928 259.189C58.2747 259.189 52.8244 258.515 47.4978 257.254C58.6016 299.742 90.7114 330.742 128.775 331.6C99.0237 360.306 61.5166 377.393 20.7411 377.393C13.7008 377.393 6.79297 376.914 0 375.903C38.4788 406.283 84.2188 424 133.342 424C293.352 424 380.875 260.885 380.875 119.486C380.875 114.823 380.778 110.182 380.619 105.628C397.605 90.5303 412.349 71.6612 424 50.1944Z" fill="url(#paint0_linear)"/>
<path d="M424 50.1944C408.382 58.7159 391.634 64.444 374.02 67.0635C391.996 53.803 405.794 32.8144 412.287 7.84762C395.477 20.0973 376.838 29.0101 357.033 33.8035C341.177 12.9779 318.572 0 293.555 0C245.501 0 206.554 47.9227 206.554 107.03C206.554 115.41 207.331 123.573 208.824 131.421C136.531 126.942 72.426 84.3348 29.5128 19.5756C22.022 35.423 17.7465 53.803 17.7465 73.4112C17.7465 110.541 33.0727 143.29 56.4373 162.507C42.1624 161.952 28.7708 157.126 17.0399 149.105C17.0399 149.561 17.0399 149.996 17.0399 150.464C17.0399 202.343 47.0208 245.548 86.7893 255.428C79.5105 257.896 71.8253 259.189 63.8928 259.189C58.2747 259.189 52.8244 258.515 47.4978 257.254C58.6016 299.742 90.7114 330.742 128.775 331.6C99.0237 360.306 61.5166 377.393 20.7411 377.393C13.7008 377.393 6.79297 376.914 0 375.903C38.4788 406.283 84.2188 424 133.342 424C293.352 424 380.875 260.885 380.875 119.486C380.875 114.823 380.778 110.182 380.619 105.628C397.605 90.5303 412.349 71.6612 424 50.1944Z" fill="url(#paint1_radial)"/>
<defs>
<linearGradient id="paint0_linear" x1="-0.0468825" y1="-0.045781" x2="449.046" y2="395.618" gradientUnits="userSpaceOnUse">
<stop offset="0.28125" stop-color="#FFB74D"/>
<stop offset="0.494792" stop-color="#E57373"/>
<stop offset="0.71875" stop-color="#42A5F5"/>
<stop offset="0.869792" stop-color="#BDBDBD"/>
</linearGradient>
<radialGradient id="paint1_radial" cx="0" cy="0" r="1" gradientUnits="userSpaceOnUse" gradientTransform="translate(-0.0469108 -0.0458362) rotate(45.003) scale(599.725 640.249)">
<stop offset="0.165032" stop-color="white"/>
<stop offset="0.353459" stop-color="#F5F5F5" stop-opacity="0"/>
</radialGradient>
</defs>
</svg>
